<svg width="16" height="17" viewBox="0 0 16 17" fill="none" xmlns="http://www.w3.org/2000/svg">
<path fill-rule="evenodd" clip-rule="evenodd" d="M2.02706 2.02828C1.76655 1.93669 1.48111 2.07362 1.38952 2.33413C1.29793 2.59464 1.43487 2.88008 1.69538 2.97167L1.86952 3.03289C2.31459 3.18937 2.6071 3.29307 2.82232 3.39868C3.02447 3.49787 3.11359 3.57815 3.17229 3.66406C3.23247 3.75212 3.27894 3.87307 3.30516 4.1153C3.33259 4.36877 3.33327 4.69892 3.33327 5.19221L3.33327 6.92667C3.33327 8.88771 3.37543 9.5349 3.95303 10.1441C4.53063 10.7533 5.46027 10.7533 7.31954 10.7533H10.8548C11.8955 10.7533 12.4158 10.7533 12.7836 10.4536C13.1514 10.1539 13.2565 9.64424 13.4666 8.62498L13.7997 7.0085C14.0311 5.84913 14.1468 5.26944 13.8509 4.88472C13.5549 4.5 12.5437 4.5 11.4204 4.5H4.3283C4.32384 4.31978 4.31538 4.15582 4.29935 4.00768C4.26353 3.67676 4.18592 3.37495 3.99793 3.09986C3.80848 2.82262 3.55658 2.64506 3.26282 2.50092C2.9881 2.36612 2.63901 2.24341 2.22799 2.09892L2.02706 2.02828ZM8.66675 6C8.94289 6 9.16675 6.22386 9.16675 6.5V7.33333H10.0001C10.2762 7.33333 10.5001 7.55719 10.5001 7.83333C10.5001 8.10947 10.2762 8.33333 10.0001 8.33333H9.16675V9.16667C9.16675 9.44281 8.94289 9.66667 8.66675 9.66667C8.39061 9.66667 8.16675 9.44281 8.16675 9.16667V8.33333H7.33341C7.05727 8.33333 6.83341 8.10947 6.83341 7.83333C6.83341 7.55719 7.05727 7.33333 7.33341 7.33333H8.16675V6.5C8.16675 6.22386 8.39061 6 8.66675 6Z" fill="#1C274C"/>
<path d="M5.00008 12.5C5.55237 12.5 6.00008 12.9477 6.00008 13.5C6.00008 14.0523 5.55237 14.5 5.00008 14.5C4.4478 14.5 4.00008 14.0523 4.00008 13.5C4.00008 12.9477 4.4478 12.5 5.00008 12.5Z" fill="#1C274C"/>
<path d="M11.0001 12.5C11.5524 12.5 12.0001 12.9478 12.0001 13.5C12.0001 14.0523 11.5524 14.5 11.0001 14.5C10.4478 14.5 10.0001 14.0523 10.0001 13.5C10.0001 12.9478 10.4478 12.5 11.0001 12.5Z" fill="#1C274C"/>
</svg>
