<svg width="17" height="16" viewBox="0 0 17 16" fill="none" xmlns="http://www.w3.org/2000/svg">
<path fill-rule="evenodd" clip-rule="evenodd" d="M1.83325 8C1.83325 8.25687 2.04149 8.46511 2.29837 8.46511H3.56019C3.78044 10.8339 5.66601 12.7195 8.0348 12.9397V14.2015C8.0348 14.4584 8.24304 14.6667 8.49992 14.6667C8.7568 14.6667 8.96504 14.4584 8.96504 14.2015V12.9397C11.3338 12.7195 13.2194 10.8339 13.4396 8.46511H14.7015C14.9583 8.46511 15.1666 8.25687 15.1666 8C15.1666 7.74312 14.9583 7.53488 14.7015 7.53488H13.4396C13.2194 5.16609 11.3338 3.28051 8.96504 3.06027V1.79844C8.96504 1.54157 8.7568 1.33333 8.49992 1.33333C8.24304 1.33333 8.0348 1.54157 8.0348 1.79844V3.06027C5.66601 3.28051 3.78044 5.16609 3.56019 7.53488H2.29837C2.04149 7.53488 1.83325 7.74312 1.83325 8ZM6.17434 8C6.17434 6.71561 7.21554 5.67441 8.49992 5.67441C9.7843 5.67441 10.8255 6.71561 10.8255 8C10.8255 9.28438 9.7843 10.3256 8.49992 10.3256C7.21554 10.3256 6.17434 9.28438 6.17434 8Z" fill="#1C274C"/>
<path d="M7.10457 8C7.10457 7.22937 7.72929 6.60465 8.49992 6.60465C9.27055 6.60465 9.89527 7.22937 9.89527 8C9.89527 8.77063 9.27055 9.39534 8.49992 9.39534C7.72929 9.39534 7.10457 8.77063 7.10457 8Z" fill="#1C274C"/>
</svg>
