<svg width="32" height="32" viewBox="0 0 32 32" fill="none" xmlns="http://www.w3.org/2000/svg">
<circle opacity="0.2" cx="16" cy="16" r="16" fill="white"/>
<path d="M21.6783 14.7383C21.6783 19.1545 16.0003 22.9399 16.0003 22.9399C16.0003 22.9399 10.3223 19.1545 10.3223 14.7383C10.3223 13.2324 10.9205 11.7882 11.9853 10.7234C13.0501 9.65852 14.4944 9.0603 16.0003 9.0603C17.5062 9.0603 18.9504 9.65852 20.0152 10.7234C21.0801 11.7882 21.6783 13.2324 21.6783 14.7383Z" stroke="white" stroke-width="1.5" stroke-linecap="round" stroke-linejoin="round"/>
<path d="M16.0001 16.6308C17.0454 16.6308 17.8928 15.7834 17.8928 14.7381C17.8928 13.6928 17.0454 12.8455 16.0001 12.8455C14.9548 12.8455 14.1074 13.6928 14.1074 14.7381C14.1074 15.7834 14.9548 16.6308 16.0001 16.6308Z" stroke="white" stroke-width="1.5" stroke-linecap="round" stroke-linejoin="round"/>
</svg>
