<svg width="10" height="3" viewBox="0 0 10 3" fill="none" xmlns="http://www.w3.org/2000/svg">
<path d="M1.302 2.102C1.00733 2.102 0.758 2 0.554 1.796C0.35 1.592 0.248 1.34267 0.248 1.048C0.248 0.753333 0.35 0.504 0.554 0.3C0.758 0.0959999 1.00733 -0.00600014 1.302 -0.00600014C1.58533 -0.00600014 1.82333 0.0959999 2.016 0.3C2.22 0.504 2.322 0.753333 2.322 1.048C2.322 1.34267 2.22 1.592 2.016 1.796C1.82333 2 1.58533 2.102 1.302 2.102ZM4.87134 2.102C4.57667 2.102 4.32734 2 4.12334 1.796C3.91934 1.592 3.81734 1.34267 3.81734 1.048C3.81734 0.753333 3.91934 0.504 4.12334 0.3C4.32734 0.0959999 4.57667 -0.00600014 4.87134 -0.00600014C5.15467 -0.00600014 5.39267 0.0959999 5.58534 0.3C5.78934 0.504 5.89134 0.753333 5.89134 1.048C5.89134 1.34267 5.78934 1.592 5.58534 1.796C5.39267 2 5.15467 2.102 4.87134 2.102ZM8.44067 2.102C8.14601 2.102 7.89667 2 7.69267 1.796C7.48867 1.592 7.38667 1.34267 7.38667 1.048C7.38667 0.753333 7.48867 0.504 7.69267 0.3C7.89667 0.0959999 8.14601 -0.00600014 8.44067 -0.00600014C8.72401 -0.00600014 8.96201 0.0959999 9.15467 0.3C9.35867 0.504 9.46067 0.753333 9.46067 1.048C9.46067 1.34267 9.35867 1.592 9.15467 1.796C8.96201 2 8.72401 2.102 8.44067 2.102Z" fill="#303030"/>
</svg>
