<svg width="16" height="16" viewBox="0 0 16 16" fill="none" xmlns="http://www.w3.org/2000/svg">
<path d="M5.56786 13.4946C6.12859 14.2073 7.00946 14.6667 8 14.6667C8.99055 14.6667 9.87142 14.2073 10.4321 13.4946C8.81762 13.7133 7.18238 13.7133 5.56786 13.4946Z" fill="#1C274C"/>
<path d="M12.4994 6V6.4694C12.4994 7.03273 12.6602 7.58345 12.9615 8.05216L13.6998 9.20077C14.3741 10.2499 13.8593 11.6759 12.6864 12.0077C9.61817 12.8756 6.38183 12.8756 3.31357 12.0077C2.1407 11.6759 1.62588 10.2499 2.30024 9.20077L3.03853 8.05216C3.33981 7.58345 3.50058 7.03273 3.50058 6.4694V6C3.50058 3.42267 5.51504 1.33333 8 1.33333C10.485 1.33333 12.4994 3.42267 12.4994 6Z" fill="#1C274C"/>
</svg>
