<svg width="16" height="16" viewBox="0 0 16 16" fill="none" xmlns="http://www.w3.org/2000/svg">
<path fill-rule="evenodd" clip-rule="evenodd" d="M14.0672 5.33569C14.0294 5.3333 13.9883 5.33332 13.9456 5.33334L13.935 5.33334H12.2627C10.8842 5.33334 9.70473 6.41838 9.70473 7.83334C9.70473 9.2483 10.8842 10.3333 12.2627 10.3333H13.935L13.9456 10.3333C13.9883 10.3334 14.0294 10.3334 14.0672 10.331C14.6271 10.2956 15.1223 9.85747 15.1639 9.24548C15.1666 9.20535 15.1666 9.16209 15.1666 9.122L15.1666 9.11112V6.55556L15.1666 6.54468C15.1666 6.50459 15.1666 6.46133 15.1639 6.4212C15.1223 5.8092 14.6271 5.37105 14.0672 5.33569ZM12.1144 8.5C12.4693 8.5 12.7569 8.20152 12.7569 7.83333C12.7569 7.46514 12.4693 7.16667 12.1144 7.16667C11.7595 7.16667 11.4718 7.46514 11.4718 7.83333C11.4718 8.20152 11.7595 8.5 12.1144 8.5Z" fill="#1C274C"/>
<path fill-rule="evenodd" clip-rule="evenodd" d="M13.9452 11.3333C14.0446 11.3308 14.1198 11.4228 14.0929 11.5185C13.959 11.9935 13.7466 12.3983 13.4058 12.7392C12.9068 13.2381 12.2742 13.4595 11.4926 13.5646C10.7331 13.6667 9.7627 13.6667 8.53753 13.6667H7.12898C5.9038 13.6667 4.93338 13.6667 4.1739 13.5646C3.39229 13.4595 2.75966 13.2381 2.26075 12.7392C1.76184 12.2403 1.54043 11.6076 1.43534 10.826C1.33323 10.0665 1.33324 9.09612 1.33325 7.87094V7.79572C1.33324 6.57055 1.33323 5.60013 1.43534 4.84065C1.54043 4.05904 1.76184 3.4264 2.26075 2.9275C2.75966 2.42859 3.39229 2.20718 4.1739 2.10209C4.93338 1.99998 5.9038 1.99999 7.12897 2L8.53753 2C9.7627 1.99999 10.7331 1.99998 11.4926 2.10209C12.2742 2.20718 12.9068 2.42859 13.4058 2.9275C13.7466 3.26835 13.959 3.67316 14.0929 4.14812C14.1198 4.24384 14.0446 4.33591 13.9452 4.33334L12.2626 4.33334C10.3715 4.33334 8.70467 5.82727 8.70467 7.83334C8.70467 9.8394 10.3715 11.3333 12.2626 11.3333L13.9452 11.3333ZM3.83325 4.66667C3.55711 4.66667 3.33325 4.89052 3.33325 5.16667C3.33325 5.44281 3.55711 5.66667 3.83325 5.66667H6.49992C6.77606 5.66667 6.99992 5.44281 6.99992 5.16667C6.99992 4.89052 6.77606 4.66667 6.49992 4.66667H3.83325Z" fill="#1C274C"/>
</svg>
